<svg width="80" height="80" viewBox="0 0 80 80" fill="none" xmlns="http://www.w3.org/2000/svg">
<circle cx="40" cy="40" r="40" fill="#49454F"/>
<path d="M41.6667 20C30.6222 20 21.6667 28.9556 21.6667 40H15L23.6444 48.6444L23.8 48.9556L32.7778 40H26.1111C26.1111 31.4 33.0667 24.4444 41.6667 24.4444C50.2667 24.4444 57.2222 31.4 57.2222 40C57.2222 48.6 50.2667 55.5556 41.6667 55.5556C37.3778 55.5556 33.4889 53.8 30.6889 50.9778L27.5333 54.1333C31.1556 57.7556 36.1333 60 41.6667 60C52.7111 60 61.6667 51.0444 61.6667 40C61.6667 28.9556 52.7111 20 41.6667 20ZM39.4444 31.1111V42.2222L48.8889 47.8222L50.6 44.9778L42.7778 40.3333V31.1111H39.4444Z" fill="#EDE4FB"/>
</svg>
