<svg width="300" height="300" viewBox="0 0 300 300" fill="none" xmlns="http://www.w3.org/2000/svg">
<circle cx="150" cy="150" r="150" fill="#EDE4FB"/>
<path d="M150 172C164.94 172 177 159.94 177 145V91C177 76.06 164.94 64 150 64C135.06 64 123 76.06 123 91V145C123 159.94 135.06 172 150 172ZM141 91C141 86.05 145.05 82 150 82C154.95 82 159 86.05 159 91V145C159 149.95 154.95 154 150 154C145.05 154 141 149.95 141 145V91ZM195 145C195 169.84 174.84 190 150 190C125.16 190 105 169.84 105 145H87C87 176.77 110.49 202.87 141 207.28V235H159V207.28C189.51 202.87 213 176.77 213 145H195Z" fill="#49454F"/>
</svg>
