<svg width="80" height="80" viewBox="0 0 80 80" fill="none" xmlns="http://www.w3.org/2000/svg">
<circle cx="40" cy="40" r="40" fill="#49454F"/>
<path d="M40 34.5455C43 34.5455 45.4545 37 45.4545 40C45.4545 43 43 45.4545 40 45.4545C37 45.4545 34.5455 43 34.5455 40C34.5455 37 37 34.5455 40 34.5455ZM40 30.9091C34.9818 30.9091 30.9091 34.9818 30.9091 40C30.9091 45.0182 34.9818 49.0909 40 49.0909C45.0182 49.0909 49.0909 45.0182 49.0909 40C49.0909 34.9818 45.0182 30.9091 40 30.9091ZM21.8182 41.8182H25.4545C26.4545 41.8182 27.2727 41 27.2727 40C27.2727 39 26.4545 38.1818 25.4545 38.1818H21.8182C20.8182 38.1818 20 39 20 40C20 41 20.8182 41.8182 21.8182 41.8182ZM54.5455 41.8182H58.1818C59.1818 41.8182 60 41 60 40C60 39 59.1818 38.1818 58.1818 38.1818H54.5455C53.5455 38.1818 52.7273 39 52.7273 40C52.7273 41 53.5455 41.8182 54.5455 41.8182ZM38.1818 21.8182V25.4545C38.1818 26.4545 39 27.2727 40 27.2727C41 27.2727 41.8182 26.4545 41.8182 25.4545V21.8182C41.8182 20.8182 41 20 40 20C39 20 38.1818 20.8182 38.1818 21.8182ZM38.1818 54.5455V58.1818C38.1818 59.1818 39 60 40 60C41 60 41.8182 59.1818 41.8182 58.1818V54.5455C41.8182 53.5455 41 52.7273 40 52.7273C39 52.7273 38.1818 53.5455 38.1818 54.5455ZM29.0727 26.5091C28.3636 25.8 27.2 25.8 26.5091 26.5091C25.8 27.2182 25.8 28.3818 26.5091 29.0727L28.4364 31C29.1455 31.7091 30.3091 31.7091 31 31C31.6909 30.2909 31.7091 29.1273 31 28.4364L29.0727 26.5091ZM51.5636 49C50.8545 48.2909 49.6909 48.2909 49 49C48.2909 49.7091 48.2909 50.8727 49 51.5636L50.9273 53.4909C51.6364 54.2 52.8 54.2 53.4909 53.4909C54.2 52.7818 54.2 51.6182 53.4909 50.9273L51.5636 49ZM53.4909 29.0727C54.2 28.3636 54.2 27.2 53.4909 26.5091C52.7818 25.8 51.6182 25.8 50.9273 26.5091L49 28.4364C48.2909 29.1455 48.2909 30.3091 49 31C49.7091 31.6909 50.8727 31.7091 51.5636 31L53.4909 29.0727ZM31 51.5636C31.7091 50.8545 31.7091 49.6909 31 49C30.2909 48.2909 29.1273 48.2909 28.4364 49L26.5091 50.9273C25.8 51.6364 25.8 52.8 26.5091 53.4909C27.2182 54.1818 28.3818 54.2 29.0727 53.4909L31 51.5636Z" fill="#EDE4FB"/>
</svg>
