<svg width="80" height="80" viewBox="0 0 80 80" fill="none" xmlns="http://www.w3.org/2000/svg">
<circle cx="40" cy="40" r="40" fill="#49454F" fill-opacity="0.12"/>
<path fill-rule="evenodd" clip-rule="evenodd" d="M46.6143 57.6184C46.4144 58.9458 45.1748 60 43.6952 60H36.2975C34.8179 60 33.5783 58.9458 33.3984 57.5207L32.8585 53.8311C32.3187 53.5578 31.7988 53.265 31.279 52.9331L27.6801 54.3387C26.2805 54.8463 24.741 54.2801 24.0612 53.0698L20.4023 46.8814C19.7025 45.593 20.0024 44.0703 21.1221 43.2113L24.1812 40.8882C24.1612 40.5954 24.1412 40.3026 24.1412 39.9902C24.1412 39.6974 24.1612 39.3851 24.1812 39.0922L21.1421 36.7692C19.9624 35.8907 19.6625 34.3094 20.4023 33.0991L24.1012 26.8716C24.781 25.6613 26.3205 25.1147 27.6801 25.6418L31.299 27.0669C31.8188 26.735 32.3387 26.4422 32.8585 26.1689L33.3984 22.4402C33.5783 21.0737 34.8179 20 36.2775 20H43.6752C45.1548 20 46.3944 21.0542 46.5744 22.4793L47.1142 26.1689C47.654 26.4422 48.1739 26.735 48.6937 27.0669L52.2926 25.6613C53.7122 25.1537 55.2517 25.7199 55.9315 26.9302L59.6104 33.1381C60.3302 34.4265 60.0103 35.9492 58.8906 36.8082L55.8515 39.1313C55.8715 39.4241 55.8915 39.7169 55.8915 40.0293C55.8915 40.3416 55.8715 40.6345 55.8515 40.9273L58.8906 43.2504C60.0103 44.1288 60.3302 45.6515 59.6304 46.8814L55.9115 53.1674C55.2317 54.3777 53.6922 54.9244 52.3126 54.3973L48.7137 52.9917C48.1939 53.3236 47.674 53.6164 47.1542 53.8897L46.6143 57.6184ZM37.2372 56.0957H42.7555L43.4953 51.1176L44.555 50.6881C45.4347 50.3367 46.3144 49.8292 47.2342 49.1654L48.1339 48.5017L52.8924 50.3758L55.6516 45.6906L51.5928 42.6061L51.7328 41.5129L51.739 41.4604C51.7968 40.9716 51.8528 40.4991 51.8528 39.9902C51.8528 39.4632 51.7928 38.9556 51.7328 38.4675L51.5928 37.3743L55.6516 34.2899L52.8724 29.6047L48.0939 31.4788L47.1942 30.7955C46.3544 30.1708 45.4547 29.6632 44.535 29.2923L43.4953 28.8629L42.7555 23.8848H37.2372L36.4974 28.8629L35.4377 29.2728C34.558 29.6437 33.6783 30.1318 32.7585 30.815L31.8588 31.4592L27.1003 29.6047L24.3211 34.2704L28.3799 37.3548L28.2399 38.448C28.1799 38.9556 28.12 39.4827 28.12 39.9902C28.12 40.4978 28.1599 41.0249 28.2399 41.5129L28.3799 42.6061L24.3211 45.6906L27.0803 50.3758L31.8588 48.5017L32.7585 49.185C33.6183 49.8292 34.478 50.3172 35.4177 50.6881L36.4774 51.1176L37.2372 56.0957ZM46.9942 39.9902C46.9942 43.7638 43.8612 46.8228 39.9964 46.8228C36.1315 46.8228 32.9985 43.7638 32.9985 39.9902C32.9985 36.2167 36.1315 33.1576 39.9964 33.1576C43.8612 33.1576 46.9942 36.2167 46.9942 39.9902Z" fill="#49454F"/>
</svg>
