<svg width="80" height="80" viewBox="0 0 80 80" fill="none" xmlns="http://www.w3.org/2000/svg">
<circle cx="40" cy="40" r="40" fill="#49454F" fill-opacity="0.12"/>
<path d="M34.1556 25.5778C33.7556 27 33.5556 28.4889 33.5556 30C33.5556 39.0667 40.9333 46.4444 50 46.4444C51.5111 46.4444 53 46.2444 54.4222 45.8444C52.1111 51.5333 46.5111 55.5556 40 55.5556C31.4222 55.5556 24.4444 48.5778 24.4444 40C24.4444 33.4889 28.4667 27.8889 34.1556 25.5778ZM40 20C28.9556 20 20 28.9556 20 40C20 51.0444 28.9556 60 40 60C51.0444 60 60 51.0444 60 40C60 38.9778 59.9111 37.9556 59.7778 36.9778C57.6 40.0222 54.0444 42 50 42C43.3778 42 38 36.6222 38 30C38 25.9778 39.9778 22.4 43.0222 20.2222C42.0444 20.0889 41.0222 20 40 20Z" fill="#49454F"/>
</svg>
